# xmcd
#
# Track frame offsets: 
#        150
#        16933
#        28869
#        42324
#        63169
#        81861
#        98018
#        112670
#        134106
#        147518
#        161994
#        179263
#        195045
#
# Disc length: 2884 seconds
#
# Revision: 0
# Processed by: cddbd v1.5.2PL0 Copyright (c) Steve Scherf et al.
# Submitted via: ExactAudioCopyFreeDBPlugin 1.0
#
DISCID=a90b420d
DTITLE=Various Artist - Gratitunes
DYEAR=2016
DGENRE=Bluegrass
TTITLE0=Sara Ball - This Is My Prayer For You 
TTITLE1=Doc Dammert - What a Wonderful World
TTITLE2=Big Johnson Brothers - You Are My Sunshine
TTITLE3=Nitghtflyer - Satan's Jewel Crown
TTITLE4=John Hueber and The Beatdogs - Someday Maybe
TTITLE5=Jeff Gaither - Thanks Again
TTITLE6=Jamison Road - Friends Like These
TTITLE7=Ruthie Lincoln - Long Way Donw
TTITLE8=East Fork Junction - Keep On The Sunny Side
TTITLE9=Rob Gregerson - With A Little Help From My Friends
TTITLE10=Ann Livingston and Onevioce - Morning Has Broken
TTITLE11=Nikki Carrelli-Conrad - Secret of Giving
TTITLE12=Instrumental - Long Way Down (Reprise) 
EXTD=
EXTT0=
EXTT1=
EXTT2=
EXTT3=
EXTT4=
EXTT5=
EXTT6=
EXTT7=
EXTT8=
EXTT9=
EXTT10=
EXTT11=
EXTT12=
PLAYORDER=
